<mxfile host="app.diagrams.net" agent="Mozilla/5.0 (Windows NT 10.0; Win64; x64) AppleWebKit/537.36 (KHTML, like Gecko) Chrome/140.0.0.0 Safari/537.36" version="28.2.4">
  <diagram name="PÃ¡gina-1" id="ty4T6BETJSiOEMqTfMGO">
    <mxGraphModel dx="1426" dy="785" grid="1" gridSize="10" guides="1" tooltips="1" connect="1" arrows="1" fold="1" page="1" pageScale="1" pageWidth="1654" pageHeight="2336" math="0" shadow="0">
      <root>
        <mxCell id="0" />
        <mxCell id="1" parent="0" />
        <mxCell id="4OCmr6QCh0wg_puHUSGE-58" value="Equipa" style="rounded=0;whiteSpace=wrap;html=1;" vertex="1" parent="1">
          <mxGeometry x="310" y="570" width="130" height="60" as="geometry" />
        </mxCell>
        <mxCell id="4OCmr6QCh0wg_puHUSGE-59" value="" style="endArrow=none;html=1;rounded=0;exitX=0.967;exitY=0.617;exitDx=0;exitDy=0;exitPerimeter=0;" edge="1" parent="1" source="4OCmr6QCh0wg_puHUSGE-60">
          <mxGeometry width="50" height="50" relative="1" as="geometry">
            <mxPoint x="240" y="610" as="sourcePoint" />
            <mxPoint x="310" y="630" as="targetPoint" />
          </mxGeometry>
        </mxCell>
        <mxCell id="4OCmr6QCh0wg_puHUSGE-60" value="&lt;span id=&quot;docs-internal-guid-fb074735-7fff-1467-12a6-5c1d7fd0b527&quot;&gt;&lt;span style=&quot;font-size: 12pt; font-family: Calibri, sans-serif; background-color: transparent; font-variant-numeric: normal; font-variant-east-asian: normal; font-variant-alternates: normal; font-variant-position: normal; font-variant-emoji: normal; text-decoration-line: underline; text-decoration-skip-ink: none; vertical-align: baseline; white-space-collapse: preserve;&quot;&gt;NumInterno&lt;/span&gt;&lt;/span&gt;" style="ellipse;whiteSpace=wrap;html=1;" vertex="1" parent="1">
          <mxGeometry x="130" y="600" width="120" height="60" as="geometry" />
        </mxCell>
        <mxCell id="4OCmr6QCh0wg_puHUSGE-61" value="" style="endArrow=none;html=1;rounded=0;entryX=0.123;entryY=1.033;entryDx=0;entryDy=0;exitX=0.983;exitY=0.267;exitDx=0;exitDy=0;entryPerimeter=0;exitPerimeter=0;" edge="1" parent="1" source="4OCmr6QCh0wg_puHUSGE-62" target="4OCmr6QCh0wg_puHUSGE-58">
          <mxGeometry width="50" height="50" relative="1" as="geometry">
            <mxPoint x="250" y="700" as="sourcePoint" />
            <mxPoint x="310" y="680" as="targetPoint" />
          </mxGeometry>
        </mxCell>
        <mxCell id="4OCmr6QCh0wg_puHUSGE-62" value="Nome" style="ellipse;whiteSpace=wrap;html=1;" vertex="1" parent="1">
          <mxGeometry x="170" y="670" width="120" height="60" as="geometry" />
        </mxCell>
        <mxCell id="4OCmr6QCh0wg_puHUSGE-63" value="" style="endArrow=none;html=1;rounded=0;entryX=0;entryY=1;entryDx=0;entryDy=0;exitX=0.392;exitY=0.033;exitDx=0;exitDy=0;exitPerimeter=0;" edge="1" parent="1" source="4OCmr6QCh0wg_puHUSGE-64">
          <mxGeometry width="50" height="50" relative="1" as="geometry">
            <mxPoint x="330" y="650" as="sourcePoint" />
            <mxPoint x="390" y="630" as="targetPoint" />
          </mxGeometry>
        </mxCell>
        <mxCell id="4OCmr6QCh0wg_puHUSGE-64" value="&lt;span id=&quot;docs-internal-guid-864a7e43-7fff-2307-8ba5-d3fcd2a51fee&quot;&gt;&lt;span style=&quot;font-size: 12pt; font-family: Calibri, sans-serif; background-color: transparent; font-variant-numeric: normal; font-variant-east-asian: normal; font-variant-alternates: normal; font-variant-position: normal; font-variant-emoji: normal; vertical-align: baseline; white-space-collapse: preserve;&quot;&gt;Morada&lt;/span&gt;&lt;/span&gt;" style="ellipse;whiteSpace=wrap;html=1;" vertex="1" parent="1">
          <mxGeometry x="410" y="660" width="120" height="60" as="geometry" />
        </mxCell>
        <mxCell id="4OCmr6QCh0wg_puHUSGE-65" value="" style="endArrow=none;html=1;rounded=0;entryX=0.392;entryY=1.033;entryDx=0;entryDy=0;entryPerimeter=0;" edge="1" parent="1" target="4OCmr6QCh0wg_puHUSGE-66">
          <mxGeometry width="50" height="50" relative="1" as="geometry">
            <mxPoint x="360" y="570" as="sourcePoint" />
            <mxPoint x="380" y="520" as="targetPoint" />
          </mxGeometry>
        </mxCell>
        <mxCell id="4OCmr6QCh0wg_puHUSGE-66" value="Morada" style="ellipse;whiteSpace=wrap;html=1;" vertex="1" parent="1">
          <mxGeometry x="330" y="470" width="120" height="60" as="geometry" />
        </mxCell>
        <mxCell id="4OCmr6QCh0wg_puHUSGE-67" value="" style="endArrow=none;html=1;rounded=0;exitX=1;exitY=0.5;exitDx=0;exitDy=0;entryX=0;entryY=0.367;entryDx=0;entryDy=0;entryPerimeter=0;" edge="1" parent="1" source="4OCmr6QCh0wg_puHUSGE-66" target="4OCmr6QCh0wg_puHUSGE-72">
          <mxGeometry width="50" height="50" relative="1" as="geometry">
            <mxPoint x="440" y="490" as="sourcePoint" />
            <mxPoint x="490" y="440" as="targetPoint" />
          </mxGeometry>
        </mxCell>
        <mxCell id="4OCmr6QCh0wg_puHUSGE-68" value="" style="endArrow=none;html=1;rounded=0;exitX=0.283;exitY=0;exitDx=0;exitDy=0;exitPerimeter=0;entryX=1;entryY=1;entryDx=0;entryDy=0;" edge="1" parent="1" source="4OCmr6QCh0wg_puHUSGE-66" target="4OCmr6QCh0wg_puHUSGE-70">
          <mxGeometry width="50" height="50" relative="1" as="geometry">
            <mxPoint x="370" y="470" as="sourcePoint" />
            <mxPoint x="340" y="430" as="targetPoint" />
          </mxGeometry>
        </mxCell>
        <mxCell id="4OCmr6QCh0wg_puHUSGE-69" value="" style="endArrow=none;html=1;rounded=0;entryX=0.4;entryY=1.017;entryDx=0;entryDy=0;entryPerimeter=0;" edge="1" parent="1" target="4OCmr6QCh0wg_puHUSGE-71">
          <mxGeometry width="50" height="50" relative="1" as="geometry">
            <mxPoint x="390" y="470" as="sourcePoint" />
            <mxPoint x="410" y="430" as="targetPoint" />
          </mxGeometry>
        </mxCell>
        <mxCell id="4OCmr6QCh0wg_puHUSGE-70" value="Rua" style="ellipse;whiteSpace=wrap;html=1;" vertex="1" parent="1">
          <mxGeometry x="230" y="390" width="120" height="60" as="geometry" />
        </mxCell>
        <mxCell id="4OCmr6QCh0wg_puHUSGE-71" value="&lt;span id=&quot;docs-internal-guid-223733fb-7fff-65e1-ff7a-13754291de61&quot;&gt;&lt;span style=&quot;font-size: 12pt; font-family: Calibri, sans-serif; background-color: transparent; font-variant-numeric: normal; font-variant-east-asian: normal; font-variant-alternates: normal; font-variant-position: normal; font-variant-emoji: normal; vertical-align: baseline; white-space-collapse: preserve;&quot;&gt;NumPorta&lt;/span&gt;&lt;/span&gt;" style="ellipse;whiteSpace=wrap;html=1;" vertex="1" parent="1">
          <mxGeometry x="360" y="380" width="120" height="60" as="geometry" />
        </mxCell>
        <mxCell id="4OCmr6QCh0wg_puHUSGE-72" value="Localidade" style="ellipse;whiteSpace=wrap;html=1;" vertex="1" parent="1">
          <mxGeometry x="470" y="480" width="120" height="60" as="geometry" />
        </mxCell>
        <mxCell id="4OCmr6QCh0wg_puHUSGE-73" value="CodPostal" style="ellipse;whiteSpace=wrap;html=1;" vertex="1" parent="1">
          <mxGeometry x="476" y="410" width="114" height="60" as="geometry" />
        </mxCell>
        <mxCell id="4OCmr6QCh0wg_puHUSGE-74" value="" style="endArrow=none;html=1;rounded=0;entryX=0.025;entryY=0.7;entryDx=0;entryDy=0;entryPerimeter=0;exitX=1;exitY=0;exitDx=0;exitDy=0;" edge="1" parent="1" source="4OCmr6QCh0wg_puHUSGE-66" target="4OCmr6QCh0wg_puHUSGE-73">
          <mxGeometry width="50" height="50" relative="1" as="geometry">
            <mxPoint x="427" y="490.02" as="sourcePoint" />
            <mxPoint x="444" y="470" as="targetPoint" />
          </mxGeometry>
        </mxCell>
        <mxCell id="4OCmr6QCh0wg_puHUSGE-75" value="" style="endArrow=none;html=1;rounded=0;exitX=0;exitY=0.5;exitDx=0;exitDy=0;entryX=1.008;entryY=0.65;entryDx=0;entryDy=0;entryPerimeter=0;" edge="1" parent="1" source="4OCmr6QCh0wg_puHUSGE-66" target="4OCmr6QCh0wg_puHUSGE-76">
          <mxGeometry width="50" height="50" relative="1" as="geometry">
            <mxPoint x="330" y="510" as="sourcePoint" />
            <mxPoint x="306" y="470" as="targetPoint" />
          </mxGeometry>
        </mxCell>
        <mxCell id="4OCmr6QCh0wg_puHUSGE-76" value="Pais" style="ellipse;whiteSpace=wrap;html=1;" vertex="1" parent="1">
          <mxGeometry x="180" y="470" width="120" height="60" as="geometry" />
        </mxCell>
        <mxCell id="4OCmr6QCh0wg_puHUSGE-77" value="" style="endArrow=none;html=1;rounded=0;exitX=1;exitY=0.5;exitDx=0;exitDy=0;entryX=0;entryY=0.5;entryDx=0;entryDy=0;" edge="1" parent="1" source="4OCmr6QCh0wg_puHUSGE-58" target="4OCmr6QCh0wg_puHUSGE-78">
          <mxGeometry width="50" height="50" relative="1" as="geometry">
            <mxPoint x="440" y="613.51" as="sourcePoint" />
            <mxPoint x="470" y="600" as="targetPoint" />
          </mxGeometry>
        </mxCell>
        <mxCell id="4OCmr6QCh0wg_puHUSGE-78" value="&lt;span id=&quot;docs-internal-guid-02809a7c-7fff-371c-dbe4-12a1901e9a56&quot;&gt;&lt;span style=&quot;font-size: 12pt; font-family: Calibri, sans-serif; background-color: transparent; font-variant-numeric: normal; font-variant-east-asian: normal; font-variant-alternates: normal; font-variant-position: normal; font-variant-emoji: normal; vertical-align: baseline; white-space-collapse: preserve;&quot;&gt;AnoFundacao&lt;/span&gt;&lt;/span&gt;" style="ellipse;whiteSpace=wrap;html=1;" vertex="1" parent="1">
          <mxGeometry x="470" y="590" width="120" height="50" as="geometry" />
        </mxCell>
        <mxCell id="4OCmr6QCh0wg_puHUSGE-79" value="Jogador" style="rounded=0;whiteSpace=wrap;html=1;" vertex="1" parent="1">
          <mxGeometry x="860" y="550" width="130" height="60" as="geometry" />
        </mxCell>
        <mxCell id="4OCmr6QCh0wg_puHUSGE-80" value="" style="endArrow=none;html=1;rounded=0;exitX=0.967;exitY=0.617;exitDx=0;exitDy=0;exitPerimeter=0;" edge="1" parent="1" source="4OCmr6QCh0wg_puHUSGE-81">
          <mxGeometry width="50" height="50" relative="1" as="geometry">
            <mxPoint x="790" y="590" as="sourcePoint" />
            <mxPoint x="860" y="610" as="targetPoint" />
          </mxGeometry>
        </mxCell>
        <mxCell id="4OCmr6QCh0wg_puHUSGE-81" value="&lt;span id=&quot;docs-internal-guid-fb074735-7fff-1467-12a6-5c1d7fd0b527&quot;&gt;&lt;span style=&quot;font-size: 12pt; font-family: Calibri, sans-serif; background-color: transparent; font-variant-numeric: normal; font-variant-east-asian: normal; font-variant-alternates: normal; font-variant-position: normal; font-variant-emoji: normal; text-decoration-line: underline; text-decoration-skip-ink: none; vertical-align: baseline; white-space-collapse: preserve;&quot;&gt;NumJogador&lt;/span&gt;&lt;/span&gt;" style="ellipse;whiteSpace=wrap;html=1;" vertex="1" parent="1">
          <mxGeometry x="680" y="580" width="120" height="60" as="geometry" />
        </mxCell>
        <mxCell id="4OCmr6QCh0wg_puHUSGE-82" value="" style="endArrow=none;html=1;rounded=0;entryX=0.123;entryY=1.033;entryDx=0;entryDy=0;exitX=0.983;exitY=0.267;exitDx=0;exitDy=0;entryPerimeter=0;exitPerimeter=0;" edge="1" parent="1" source="4OCmr6QCh0wg_puHUSGE-83" target="4OCmr6QCh0wg_puHUSGE-79">
          <mxGeometry width="50" height="50" relative="1" as="geometry">
            <mxPoint x="800" y="680" as="sourcePoint" />
            <mxPoint x="860" y="660" as="targetPoint" />
          </mxGeometry>
        </mxCell>
        <mxCell id="4OCmr6QCh0wg_puHUSGE-83" value="GÃ©nero" style="ellipse;whiteSpace=wrap;html=1;" vertex="1" parent="1">
          <mxGeometry x="720" y="650" width="120" height="60" as="geometry" />
        </mxCell>
        <mxCell id="4OCmr6QCh0wg_puHUSGE-84" value="" style="endArrow=none;html=1;rounded=0;entryX=0;entryY=1;entryDx=0;entryDy=0;exitX=0.558;exitY=-0.033;exitDx=0;exitDy=0;exitPerimeter=0;" edge="1" parent="1" source="4OCmr6QCh0wg_puHUSGE-85">
          <mxGeometry width="50" height="50" relative="1" as="geometry">
            <mxPoint x="880" y="630" as="sourcePoint" />
            <mxPoint x="940" y="610" as="targetPoint" />
          </mxGeometry>
        </mxCell>
        <mxCell id="4OCmr6QCh0wg_puHUSGE-85" value="&lt;span id=&quot;docs-internal-guid-864a7e43-7fff-2307-8ba5-d3fcd2a51fee&quot;&gt;&lt;span style=&quot;font-size: 12pt; font-family: Calibri, sans-serif; background-color: transparent; font-variant-numeric: normal; font-variant-east-asian: normal; font-variant-alternates: normal; font-variant-position: normal; font-variant-emoji: normal; vertical-align: baseline; white-space-collapse: preserve;&quot;&gt;Posicao&lt;/span&gt;&lt;/span&gt;" style="ellipse;whiteSpace=wrap;html=1;" vertex="1" parent="1">
          <mxGeometry x="890" y="650" width="120" height="60" as="geometry" />
        </mxCell>
        <mxCell id="4OCmr6QCh0wg_puHUSGE-86" value="" style="endArrow=none;dashed=1;html=1;rounded=0;exitX=1;exitY=0.5;exitDx=0;exitDy=0;" edge="1" parent="1" source="4OCmr6QCh0wg_puHUSGE-79">
          <mxGeometry width="50" height="50" relative="1" as="geometry">
            <mxPoint x="990" y="600" as="sourcePoint" />
            <mxPoint x="1040" y="580" as="targetPoint" />
          </mxGeometry>
        </mxCell>
        <mxCell id="4OCmr6QCh0wg_puHUSGE-87" value="Idade" style="ellipse;whiteSpace=wrap;html=1;dashed=1;dashPattern=8 8;" vertex="1" parent="1">
          <mxGeometry x="1040" y="550" width="120" height="60" as="geometry" />
        </mxCell>
        <mxCell id="4OCmr6QCh0wg_puHUSGE-88" value="Jogo" style="rounded=0;whiteSpace=wrap;html=1;" vertex="1" parent="1">
          <mxGeometry x="730" y="800" width="130" height="60" as="geometry" />
        </mxCell>
        <mxCell id="4OCmr6QCh0wg_puHUSGE-89" value="" style="endArrow=none;html=1;rounded=0;exitX=0.975;exitY=0.683;exitDx=0;exitDy=0;exitPerimeter=0;" edge="1" parent="1" source="4OCmr6QCh0wg_puHUSGE-90">
          <mxGeometry width="50" height="50" relative="1" as="geometry">
            <mxPoint x="663.04" y="827.02" as="sourcePoint" />
            <mxPoint x="730" y="860" as="targetPoint" />
          </mxGeometry>
        </mxCell>
        <mxCell id="4OCmr6QCh0wg_puHUSGE-90" value="&lt;span id=&quot;docs-internal-guid-fb074735-7fff-1467-12a6-5c1d7fd0b527&quot;&gt;&lt;span style=&quot;font-size: 12pt; font-family: Calibri, sans-serif; background-color: transparent; font-variant-numeric: normal; font-variant-east-asian: normal; font-variant-alternates: normal; font-variant-position: normal; font-variant-emoji: normal; text-decoration-line: underline; text-decoration-skip-ink: none; vertical-align: baseline; white-space-collapse: preserve;&quot;&gt;NumJogo&lt;/span&gt;&lt;/span&gt;" style="ellipse;whiteSpace=wrap;html=1;" vertex="1" parent="1">
          <mxGeometry x="550" y="790" width="120" height="60" as="geometry" />
        </mxCell>
        <mxCell id="4OCmr6QCh0wg_puHUSGE-91" value="" style="endArrow=none;html=1;rounded=0;entryX=0.123;entryY=1.033;entryDx=0;entryDy=0;exitX=0.983;exitY=0.267;exitDx=0;exitDy=0;entryPerimeter=0;exitPerimeter=0;" edge="1" parent="1" source="4OCmr6QCh0wg_puHUSGE-92" target="4OCmr6QCh0wg_puHUSGE-88">
          <mxGeometry width="50" height="50" relative="1" as="geometry">
            <mxPoint x="670" y="930" as="sourcePoint" />
            <mxPoint x="730" y="910" as="targetPoint" />
          </mxGeometry>
        </mxCell>
        <mxCell id="4OCmr6QCh0wg_puHUSGE-92" value="Data" style="ellipse;whiteSpace=wrap;html=1;" vertex="1" parent="1">
          <mxGeometry x="590" y="900" width="120" height="60" as="geometry" />
        </mxCell>
        <mxCell id="4OCmr6QCh0wg_puHUSGE-93" value="" style="endArrow=none;html=1;rounded=0;entryX=0;entryY=1;entryDx=0;entryDy=0;exitX=0.558;exitY=-0.033;exitDx=0;exitDy=0;exitPerimeter=0;" edge="1" parent="1" source="4OCmr6QCh0wg_puHUSGE-94">
          <mxGeometry width="50" height="50" relative="1" as="geometry">
            <mxPoint x="750" y="880" as="sourcePoint" />
            <mxPoint x="810" y="860" as="targetPoint" />
          </mxGeometry>
        </mxCell>
        <mxCell id="4OCmr6QCh0wg_puHUSGE-94" value="&lt;span id=&quot;docs-internal-guid-864a7e43-7fff-2307-8ba5-d3fcd2a51fee&quot;&gt;&lt;span style=&quot;font-size: 12pt; font-family: Calibri, sans-serif; background-color: transparent; font-variant-numeric: normal; font-variant-east-asian: normal; font-variant-alternates: normal; font-variant-position: normal; font-variant-emoji: normal; vertical-align: baseline; white-space-collapse: preserve;&quot;&gt;Local&lt;/span&gt;&lt;/span&gt;" style="ellipse;whiteSpace=wrap;html=1;" vertex="1" parent="1">
          <mxGeometry x="740" y="910" width="120" height="60" as="geometry" />
        </mxCell>
        <mxCell id="4OCmr6QCh0wg_puHUSGE-95" value="" style="endArrow=none;html=1;rounded=0;entryX=1;entryY=1;entryDx=0;entryDy=0;exitX=0;exitY=0;exitDx=0;exitDy=0;" edge="1" parent="1" source="4OCmr6QCh0wg_puHUSGE-96" target="4OCmr6QCh0wg_puHUSGE-88">
          <mxGeometry width="50" height="50" relative="1" as="geometry">
            <mxPoint x="890" y="860" as="sourcePoint" />
            <mxPoint x="950" y="840" as="targetPoint" />
          </mxGeometry>
        </mxCell>
        <mxCell id="4OCmr6QCh0wg_puHUSGE-96" value="&lt;span id=&quot;docs-internal-guid-864a7e43-7fff-2307-8ba5-d3fcd2a51fee&quot;&gt;&lt;span style=&quot;font-size: 12pt; font-family: Calibri, sans-serif; background-color: transparent; font-variant-numeric: normal; font-variant-east-asian: normal; font-variant-alternates: normal; font-variant-position: normal; font-variant-emoji: normal; vertical-align: baseline; white-space-collapse: preserve;&quot;&gt;Visitado&lt;/span&gt;&lt;/span&gt;" style="ellipse;whiteSpace=wrap;html=1;" vertex="1" parent="1">
          <mxGeometry x="880" y="880" width="120" height="60" as="geometry" />
        </mxCell>
        <mxCell id="4OCmr6QCh0wg_puHUSGE-97" value="" style="endArrow=none;html=1;rounded=0;exitX=1;exitY=0.5;exitDx=0;exitDy=0;entryX=0;entryY=0.5;entryDx=0;entryDy=0;" edge="1" parent="1" target="4OCmr6QCh0wg_puHUSGE-98">
          <mxGeometry width="50" height="50" relative="1" as="geometry">
            <mxPoint x="860" y="815" as="sourcePoint" />
            <mxPoint x="890" y="815" as="targetPoint" />
          </mxGeometry>
        </mxCell>
        <mxCell id="4OCmr6QCh0wg_puHUSGE-98" value="&lt;span id=&quot;docs-internal-guid-02809a7c-7fff-371c-dbe4-12a1901e9a56&quot;&gt;&lt;span style=&quot;font-size: 12pt; font-family: Calibri, sans-serif; background-color: transparent; font-variant-numeric: normal; font-variant-east-asian: normal; font-variant-alternates: normal; font-variant-position: normal; font-variant-emoji: normal; vertical-align: baseline; white-space-collapse: preserve;&quot;&gt;Visitado&lt;/span&gt;&lt;/span&gt;" style="ellipse;whiteSpace=wrap;html=1;" vertex="1" parent="1">
          <mxGeometry x="890" y="790" width="120" height="50" as="geometry" />
        </mxCell>
        <mxCell id="4OCmr6QCh0wg_puHUSGE-99" value="" style="endArrow=none;html=1;rounded=0;exitX=0;exitY=0;exitDx=0;exitDy=0;entryX=1;entryY=1;entryDx=0;entryDy=0;" edge="1" parent="1" source="4OCmr6QCh0wg_puHUSGE-88" target="4OCmr6QCh0wg_puHUSGE-100">
          <mxGeometry width="50" height="50" relative="1" as="geometry">
            <mxPoint x="730" y="810" as="sourcePoint" />
            <mxPoint x="706" y="770" as="targetPoint" />
          </mxGeometry>
        </mxCell>
        <mxCell id="4OCmr6QCh0wg_puHUSGE-100" value="Resultado?" style="ellipse;whiteSpace=wrap;html=1;" vertex="1" parent="1">
          <mxGeometry x="596" y="730" width="120" height="60" as="geometry" />
        </mxCell>
        <mxCell id="4OCmr6QCh0wg_puHUSGE-101" value="&lt;span id=&quot;docs-internal-guid-3bac1d76-7fff-3e42-20b9-e0b5040da520&quot;&gt;&lt;span style=&quot;font-size: 12pt; font-family: Calibri, sans-serif; background-color: transparent; font-variant-numeric: normal; font-variant-east-asian: normal; font-variant-alternates: normal; font-variant-position: normal; font-variant-emoji: normal; vertical-align: baseline; white-space-collapse: preserve;&quot;&gt;JOGOU&lt;/span&gt;&lt;/span&gt;" style="shape=rhombus;perimeter=rhombusPerimeter;whiteSpace=wrap;html=1;align=center;" vertex="1" parent="1">
          <mxGeometry x="280" y="850" width="140" height="60" as="geometry" />
        </mxCell>
        <mxCell id="4OCmr6QCh0wg_puHUSGE-102" value="" style="endArrow=none;html=1;rounded=0;entryX=0.385;entryY=1.017;entryDx=0;entryDy=0;entryPerimeter=0;exitX=0.5;exitY=0;exitDx=0;exitDy=0;" edge="1" parent="1" source="4OCmr6QCh0wg_puHUSGE-101" target="4OCmr6QCh0wg_puHUSGE-58">
          <mxGeometry relative="1" as="geometry">
            <mxPoint x="360" y="860" as="sourcePoint" />
            <mxPoint x="520" y="860" as="targetPoint" />
          </mxGeometry>
        </mxCell>
        <mxCell id="4OCmr6QCh0wg_puHUSGE-103" value="M" style="edgeLabel;html=1;align=center;verticalAlign=middle;resizable=0;points=[];" vertex="1" connectable="0" parent="4OCmr6QCh0wg_puHUSGE-102">
          <mxGeometry x="-0.6532" y="1" relative="1" as="geometry">
            <mxPoint x="-11" y="18" as="offset" />
          </mxGeometry>
        </mxCell>
        <mxCell id="4OCmr6QCh0wg_puHUSGE-104" value="&lt;span id=&quot;docs-internal-guid-068f5c22-7fff-2dc6-6867-d4454d6422a6&quot;&gt;&lt;span style=&quot;font-size: 12pt; font-family: Calibri, sans-serif; background-color: transparent; font-variant-numeric: normal; font-variant-east-asian: normal; font-variant-alternates: normal; font-variant-position: normal; font-variant-emoji: normal; vertical-align: baseline; white-space-collapse: preserve;&quot;&gt;FILIADO_A &lt;/span&gt;&lt;/span&gt;" style="shape=rhombus;perimeter=rhombusPerimeter;whiteSpace=wrap;html=1;align=center;" vertex="1" parent="1">
          <mxGeometry x="660" y="480" width="140" height="60" as="geometry" />
        </mxCell>
        <mxCell id="4OCmr6QCh0wg_puHUSGE-105" value="" style="endArrow=none;html=1;rounded=0;exitX=1;exitY=0;exitDx=0;exitDy=0;entryX=0.283;entryY=0.917;entryDx=0;entryDy=0;entryPerimeter=0;" edge="1" parent="1" source="4OCmr6QCh0wg_puHUSGE-104" target="4OCmr6QCh0wg_puHUSGE-108">
          <mxGeometry width="50" height="50" relative="1" as="geometry">
            <mxPoint x="760" y="490" as="sourcePoint" />
            <mxPoint x="810" y="440" as="targetPoint" />
          </mxGeometry>
        </mxCell>
        <mxCell id="4OCmr6QCh0wg_puHUSGE-106" value="" style="endArrow=none;html=1;rounded=0;entryX=0.5;entryY=1;entryDx=0;entryDy=0;" edge="1" parent="1" target="4OCmr6QCh0wg_puHUSGE-107">
          <mxGeometry width="50" height="50" relative="1" as="geometry">
            <mxPoint x="730" y="480" as="sourcePoint" />
            <mxPoint x="750" y="420" as="targetPoint" />
          </mxGeometry>
        </mxCell>
        <mxCell id="4OCmr6QCh0wg_puHUSGE-107" value="&lt;span id=&quot;docs-internal-guid-519835f9-7fff-7881-be77-e146aec1e34f&quot;&gt;&lt;span style=&quot;font-size: 12pt; font-family: Calibri, sans-serif; background-color: transparent; font-variant-numeric: normal; font-variant-east-asian: normal; font-variant-alternates: normal; font-variant-position: normal; font-variant-emoji: normal; vertical-align: baseline; white-space-collapse: preserve;&quot;&gt;AnoCorrente&lt;/span&gt;&lt;/span&gt;" style="ellipse;whiteSpace=wrap;html=1;" vertex="1" parent="1">
          <mxGeometry x="650" y="370" width="120" height="60" as="geometry" />
        </mxCell>
        <mxCell id="4OCmr6QCh0wg_puHUSGE-108" value="&lt;span id=&quot;docs-internal-guid-5716009d-7fff-8a31-f62c-f3be3be26c6c&quot;&gt;&lt;span style=&quot;font-size: 12pt; font-family: Calibri, sans-serif; background-color: transparent; font-variant-numeric: normal; font-variant-east-asian: normal; font-variant-alternates: normal; font-variant-position: normal; font-variant-emoji: normal; vertical-align: baseline; white-space-collapse: preserve;&quot;&gt;EscalÃ£o&lt;/span&gt;&lt;/span&gt;" style="ellipse;whiteSpace=wrap;html=1;" vertex="1" parent="1">
          <mxGeometry x="780" y="410" width="120" height="60" as="geometry" />
        </mxCell>
        <mxCell id="4OCmr6QCh0wg_puHUSGE-109" value="" style="endArrow=none;html=1;rounded=0;exitX=0;exitY=0;exitDx=0;exitDy=0;" edge="1" parent="1" source="4OCmr6QCh0wg_puHUSGE-79">
          <mxGeometry width="50" height="50" relative="1" as="geometry">
            <mxPoint x="730" y="570" as="sourcePoint" />
            <mxPoint x="780" y="520" as="targetPoint" />
          </mxGeometry>
        </mxCell>
        <mxCell id="4OCmr6QCh0wg_puHUSGE-110" value="N" style="edgeLabel;html=1;align=center;verticalAlign=middle;resizable=0;points=[];" vertex="1" connectable="0" parent="4OCmr6QCh0wg_puHUSGE-109">
          <mxGeometry x="0.6219" relative="1" as="geometry">
            <mxPoint x="5" y="-6" as="offset" />
          </mxGeometry>
        </mxCell>
        <mxCell id="4OCmr6QCh0wg_puHUSGE-111" value="" style="shape=link;html=1;rounded=0;" edge="1" parent="1" target="4OCmr6QCh0wg_puHUSGE-104">
          <mxGeometry relative="1" as="geometry">
            <mxPoint x="440" y="580" as="sourcePoint" />
            <mxPoint x="600" y="580" as="targetPoint" />
          </mxGeometry>
        </mxCell>
        <mxCell id="4OCmr6QCh0wg_puHUSGE-112" value="1" style="edgeLabel;html=1;align=center;verticalAlign=middle;resizable=0;points=[];" vertex="1" connectable="0" parent="4OCmr6QCh0wg_puHUSGE-111">
          <mxGeometry x="0.3997" y="3" relative="1" as="geometry">
            <mxPoint x="29" y="-16" as="offset" />
          </mxGeometry>
        </mxCell>
        <mxCell id="4OCmr6QCh0wg_puHUSGE-113" value="" style="shape=link;html=1;rounded=0;entryX=0;entryY=1;entryDx=0;entryDy=0;" edge="1" parent="1" target="4OCmr6QCh0wg_puHUSGE-88">
          <mxGeometry relative="1" as="geometry">
            <mxPoint x="400" y="890" as="sourcePoint" />
            <mxPoint x="560" y="890" as="targetPoint" />
          </mxGeometry>
        </mxCell>
        <mxCell id="4OCmr6QCh0wg_puHUSGE-114" value="N" style="edgeLabel;html=1;align=center;verticalAlign=middle;resizable=0;points=[];" vertex="1" connectable="0" parent="4OCmr6QCh0wg_puHUSGE-113">
          <mxGeometry x="-0.4164" y="3" relative="1" as="geometry">
            <mxPoint x="-56" y="-8" as="offset" />
          </mxGeometry>
        </mxCell>
      </root>
    </mxGraphModel>
  </diagram>
</mxfile>
